# Blender 4.0.2
# www.blender.org
mtllib planetoid.mtl
o planetoid
v -3.044512 -3.013136 3.043208
v -3.044512 3.075887 3.043209
v -3.044512 -3.013136 -3.045816
v -3.044513 3.075887 -3.045815
v 3.044513 -3.013136 3.043208
v 3.044512 3.075885 3.043208
v 3.044512 -3.013136 -3.045816
v 3.044512 3.075885 -3.045816
v -3.711673 -3.680298 -0.001304
v -3.711673 0.031374 3.710370
v -3.711673 3.743048 -0.001304
v -3.711673 0.031374 -3.712978
v 0.000000 -3.680298 -3.712978
v 0.000000 3.743049 -3.712978
v 3.711673 0.031374 -3.712978
v 3.711674 -3.680298 -0.001304
v 3.711674 3.743049 -0.001304
v 3.711673 0.031375 3.710371
v 0.000000 -3.680298 3.710370
v 0.000000 3.743049 3.710370
v -5.111773 0.031374 -0.001304
v 0.000000 0.031374 -5.113077
v 5.111773 0.031374 -0.001304
v 0.000000 0.031374 5.110470
v 0.000000 -5.080398 -0.001304
v 0.000000 5.143148 -0.001304
v -6.376284 0.819505 -7.088002
v -9.394016 1.748490 -0.479845
v -6.885304 1.780648 6.400767
v -0.319719 0.897142 9.523262
v 6.456711 -0.384481 7.058525
v 9.474442 -1.313465 0.450369
v 6.965731 -1.345620 -6.430244
v 0.400147 -0.462117 -9.552740
v -5.514368 0.774747 -6.146661
v -8.129500 1.579791 -0.420106
v -5.955479 1.607659 5.542555
v -0.265816 0.842023 8.248474
v 5.606561 -0.268616 6.112560
v 8.221693 -1.073660 0.386008
v 6.047671 -1.101529 -5.576653
v 0.358012 -0.335895 -8.282573
v -6.456710 0.333501 -7.056407
v -9.474442 1.262485 -0.448249
v -6.965730 1.294643 6.432362
v -0.400145 0.411137 9.554859
v 6.376284 -0.870486 7.090120
v 9.394016 -1.799470 0.481964
v 6.885304 -1.831625 -6.398647
v 0.319721 -0.948122 -9.521145
v -5.606560 0.217636 -6.110444
v -8.221692 1.022681 -0.383888
v -6.047672 1.050548 5.578774
v -0.358009 0.284912 8.284691
v 5.514368 -0.825727 6.148778
v 8.129500 -1.630774 0.422226
v 5.955478 -1.658639 -5.540435
v 0.265819 -0.893006 -8.246355
vn -0.5774 -0.5774 0.5774
vn -0.7071 -0.0000 0.7071
vn -1.0000 -0.0000 -0.0000
vn -0.7071 -0.7071 -0.0000
vn -0.5774 0.5774 0.5774
vn -0.7071 0.7071 -0.0000
vn -0.5774 0.5774 -0.5774
vn -0.7071 -0.0000 -0.7071
vn -0.5774 -0.5774 -0.5774
vn -0.0000 -0.0000 -1.0000
vn -0.0000 -0.7071 -0.7071
vn -0.0000 0.7071 -0.7071
vn 0.5774 0.5773 -0.5774
vn 0.7071 -0.0000 -0.7071
vn 0.5774 -0.5774 -0.5774
vn 1.0000 -0.0000 -0.0000
vn 0.7071 -0.7071 -0.0000
vn 0.7071 0.7071 -0.0000
vn 0.5774 0.5774 0.5774
vn 0.7071 -0.0000 0.7071
vn 0.5774 -0.5774 0.5774
vn -0.0000 -0.0000 1.0000
vn -0.0000 -0.7071 0.7071
vn -0.0000 0.7071 0.7071
vn -0.0000 -1.0000 -0.0000
vn -0.0000 1.0000 -0.0000
vn 0.1307 0.5563 -0.8207
vn 0.1110 0.8435 0.5256
vn -0.2867 0.8970 0.3364
vn 0.6683 0.4839 -0.5650
vn 0.8736 0.4866 -0.0017
vn -0.4387 0.8951 -0.0803
vn -0.2559 0.8388 -0.4806
vn 0.6266 0.5626 0.5393
vn 0.0718 0.6675 0.7411
vn 0.1546 0.7612 -0.6299
vn 0.5522 0.7076 -0.4407
vn -0.4657 0.7399 0.4855
vn -0.6711 0.7372 -0.0779
vn 0.7042 0.7096 -0.0240
vn 0.5214 0.7659 0.3763
vn -0.4241 0.6612 -0.6189
vn -0.0718 -0.6675 -0.7411
vn 0.4657 -0.7399 -0.4855
vn -0.5522 -0.7077 0.4407
vn -0.1546 -0.7612 0.6299
vn 0.6711 -0.7372 0.0779
vn 0.4241 -0.6612 0.6189
vn -0.5214 -0.7659 -0.3763
vn -0.7042 -0.7096 0.0240
vn -0.1307 -0.5563 0.8207
vn -0.6683 -0.4839 0.5650
vn 0.2867 -0.8970 -0.3364
vn -0.1110 -0.8435 -0.5256
vn -0.8736 -0.4866 0.0017
vn -0.6266 -0.5626 -0.5393
vn 0.2559 -0.8388 0.4806
vn 0.4387 -0.8951 0.0803
vt 0.375000 0.000000
vt 0.500000 0.000000
vt 0.500000 0.125000
vt 0.375000 0.125000
vt 0.625000 0.000000
vt 0.625000 0.125000
vt 0.625000 0.250000
vt 0.500000 0.250000
vt 0.375000 0.250000
vt 0.500000 0.375000
vt 0.375000 0.375000
vt 0.625000 0.375000
vt 0.625000 0.500000
vt 0.500000 0.500000
vt 0.375000 0.500000
vt 0.500000 0.625000
vt 0.375000 0.625000
vt 0.625000 0.625000
vt 0.625000 0.750000
vt 0.500000 0.750000
vt 0.375000 0.750000
vt 0.500000 0.875000
vt 0.375000 0.875000
vt 0.625000 0.875000
vt 0.625000 1.000000
vt 0.500000 1.000000
vt 0.375000 1.000000
vt 0.125000 0.500000
vt 0.250000 0.500000
vt 0.250000 0.625000
vt 0.125000 0.625000
vt 0.250000 0.750000
vt 0.125000 0.750000
vt 0.750000 0.500000
vt 0.750000 0.625000
vt 0.875000 0.500000
vt 0.875000 0.625000
vt 0.875000 0.750000
vt 0.750000 0.750000
vt 0.000000 0.000000
s 1
f 1/1/1 10/2/2 21/3/3 9/4/4
f 10/2/2 2/5/5 11/6/6 21/3/3
f 21/3/3 11/6/6 4/7/7 12/8/8
f 9/4/4 21/3/3 12/8/8 3/9/9
f 3/9/9 12/8/8 22/10/10 13/11/11
f 12/8/8 4/7/7 14/12/12 22/10/10
f 22/10/10 14/12/12 8/13/13 15/14/14
f 13/11/11 22/10/10 15/14/14 7/15/15
f 7/15/15 15/14/14 23/16/16 16/17/17
f 15/14/14 8/13/13 17/18/18 23/16/16
f 23/16/16 17/18/18 6/19/19 18/20/20
f 16/17/17 23/16/16 18/20/20 5/21/21
f 5/21/21 18/20/20 24/22/22 19/23/23
f 18/20/20 6/19/19 20/24/24 24/22/22
f 24/22/22 20/24/24 2/25/5 10/26/2
f 19/23/23 24/22/22 10/26/2 1/27/1
f 3/28/9 13/29/11 25/30/25 9/31/4
f 13/29/11 7/15/15 16/17/17 25/30/25
f 25/30/25 16/17/17 5/21/21 19/32/23
f 9/31/4 25/30/25 19/32/23 1/33/1
f 8/13/13 14/34/12 26/35/26 17/18/18
f 14/34/12 4/36/7 11/37/6 26/35/26
f 26/35/26 11/37/6 2/38/5 20/39/24
f 17/18/18 26/35/26 20/39/24 6/19/19
f 34/40/27 42/40/28 41/40/29 33/40/30
f 32/40/31 40/40/32 39/40/33 31/40/34
f 30/40/35 38/40/36 37/40/37 29/40/38
f 28/40/39 36/40/40 35/40/41 27/40/42
f 27/40/42 35/40/41 42/40/28 34/40/27
f 33/40/30 41/40/29 40/40/32 32/40/31
f 31/40/34 39/40/33 38/40/36 30/40/35
f 29/40/38 37/40/37 36/40/40 28/40/39
f 50/40/43 49/40/44 57/40/45 58/40/46
f 48/40/47 47/40/48 55/40/49 56/40/50
f 46/40/51 45/40/52 53/40/53 54/40/54
f 44/40/55 43/40/56 51/40/57 52/40/58
f 43/40/56 50/40/43 58/40/46 51/40/57
f 49/40/44 48/40/47 56/40/50 57/40/45
f 47/40/48 46/40/51 54/40/54 55/40/49
f 45/40/52 44/40/55 52/40/58 53/40/53
f 40/40/32 41/40/29 57/40/45 56/40/50
f 34/40/27 33/40/30 49/40/44 50/40/43
f 41/40/29 42/40/28 58/40/46 57/40/45
f 27/40/42 34/40/27 50/40/43 43/40/56
f 28/40/39 27/40/42 43/40/56 44/40/55
f 42/40/28 35/40/41 51/40/57 58/40/46
f 35/40/41 36/40/40 52/40/58 51/40/57
f 29/40/38 28/40/39 44/40/55 45/40/52
f 36/40/40 37/40/37 53/40/53 52/40/58
f 30/40/35 29/40/38 45/40/52 46/40/51
f 37/40/37 38/40/36 54/40/54 53/40/53
f 31/40/34 30/40/35 46/40/51 47/40/48
f 38/40/36 39/40/33 55/40/49 54/40/54
f 32/40/31 31/40/34 47/40/48 48/40/47
f 39/40/33 40/40/32 56/40/50 55/40/49
f 33/40/30 32/40/31 48/40/47 49/40/44
