# Blender 4.0.2
# www.blender.org
mtllib rings.mtl
o rings
v -0.000000 -0.207575 -25.621271
v -18.116976 -0.207575 -18.116972
v -25.621271 -0.207575 0.000001
v -18.116976 -0.207575 18.116976
v 0.000000 -0.207575 25.621275
v 18.116974 -0.207575 18.116976
v 25.621271 -0.207575 0.000000
v 18.116974 -0.207575 -18.116974
v -0.000001 -0.207575 -24.342028
v -17.212412 -0.207575 -17.212412
v -24.342028 -0.207575 0.000001
v -17.212412 -0.207575 17.212414
v 0.000001 -0.207575 24.342031
v 17.212414 -0.207575 17.212414
v 24.342028 -0.207575 0.000001
v 17.212414 -0.207575 -17.212412
v -0.000000 0.207564 -25.621271
v -18.116976 0.207564 -18.116972
v -25.621271 0.207564 0.000001
v -18.116976 0.207564 18.116976
v 0.000000 0.207564 25.621275
v 18.116974 0.207564 18.116976
v 25.621271 0.207564 0.000000
v 18.116974 0.207564 -18.116974
v -0.000001 0.207564 -24.342028
v -17.212412 0.207564 -17.212412
v -24.342028 0.207564 0.000001
v -17.212412 0.207564 17.212414
v 0.000001 0.207564 24.342031
v 17.212414 0.207564 17.212414
v 24.342028 0.207564 0.000001
v 17.212414 0.207564 -17.212412
v -23.220757 10.976471 -10.828020
v -24.076122 10.976471 8.762990
v -10.828023 10.976471 23.220758
v 8.762988 10.976471 24.076122
v 23.220757 10.976471 10.828024
v 24.076122 10.976471 -8.762988
v 10.828020 10.976471 -23.220757
v -8.762990 10.976471 -24.076120
v -22.061369 10.976471 -10.287389
v -22.874027 10.976471 8.325460
v -10.287390 10.976471 22.061371
v 8.325461 10.976471 22.874027
v 22.061369 10.976471 10.287391
v 22.874025 10.976471 -8.325461
v 10.287390 10.976471 -22.061367
v -8.325463 10.976471 -22.874023
v -23.220757 11.391610 -10.828020
v -24.076122 11.391610 8.762990
v -10.828023 11.391610 23.220758
v 8.762988 11.391610 24.076122
v 23.220757 11.391610 10.828024
v 24.076122 11.391610 -8.762988
v 10.828020 11.391610 -23.220757
v -8.762990 11.391610 -24.076120
v -22.061369 11.391610 -10.287389
v -22.874027 11.391610 8.325460
v -10.287390 11.391610 22.061371
v 8.325461 11.391610 22.874027
v 22.061369 11.391610 10.287391
v 22.874025 11.391610 -8.325461
v 10.287390 11.391610 -22.061367
v -8.325463 11.391610 -22.874023
vn 0.5490 -0.6303 -0.5490
vn -0.5944 -0.8042 -0.0000
vn -0.4203 -0.8042 0.4203
vn -0.0000 -0.6303 0.7764
vn -0.4203 -0.8042 -0.4203
vn 0.5490 -0.6303 0.5490
vn -0.7764 -0.6303 -0.0000
vn 0.4203 -0.8042 -0.4203
vn -0.5490 -0.6303 0.5490
vn -0.0000 -0.6303 -0.7764
vn 0.4203 -0.8042 0.4203
vn -0.5490 -0.6303 -0.5490
vn -0.0000 -0.8042 0.5944
vn 0.7764 -0.6303 -0.0000
vn -0.0000 -0.8042 -0.5944
vn 0.5944 -0.8042 -0.0000
vn -0.4203 0.8042 0.4203
vn 0.7764 0.6303 -0.0000
vn 0.5490 0.6303 -0.5490
vn -0.4203 0.8042 -0.4203
vn -0.0000 0.6303 0.7764
vn 0.5490 0.6303 0.5490
vn -0.5490 0.6303 0.5490
vn 0.5944 0.8042 -0.0000
vn -0.7764 0.6303 -0.0000
vn -0.5490 0.6303 -0.5490
vn -0.0000 0.8042 0.5944
vn -0.0000 0.6303 -0.7764
vn -0.5944 0.8042 -0.0000
vn -0.0000 0.8042 -0.5944
vn 0.4203 0.8042 0.4203
vn 0.4203 0.8042 -0.4203
vn 0.3281 -0.6303 -0.7036
vn 0.2033 -0.8042 0.5585
vn -0.2655 -0.6303 -0.7296
vn 0.7036 -0.6303 0.3281
vn -0.5585 -0.8042 0.2033
vn 0.7296 -0.6303 -0.2655
vn -0.3281 -0.6303 0.7036
vn -0.2033 -0.8042 -0.5585
vn 0.2655 -0.6303 0.7296
vn -0.7036 -0.6303 -0.3281
vn 0.5585 -0.8042 -0.2033
vn -0.7296 -0.6303 0.2655
vn 0.5387 -0.8042 0.2512
vn -0.2512 -0.8042 0.5387
vn -0.5387 -0.8042 -0.2512
vn 0.2512 -0.8042 -0.5387
vn -0.2655 0.6303 -0.7296
vn -0.2512 0.8042 0.5387
vn 0.3281 0.6303 -0.7036
vn -0.5585 0.8042 0.2033
vn 0.7036 0.6303 0.3281
vn 0.7296 0.6303 -0.2655
vn -0.2033 0.8042 -0.5585
vn -0.3281 0.6303 0.7036
vn 0.2655 0.6303 0.7296
vn 0.5585 0.8042 -0.2033
vn -0.7036 0.6303 -0.3281
vn -0.7296 0.6303 0.2655
vn 0.5387 0.8042 0.2512
vn 0.2512 0.8042 -0.5387
vn -0.5387 0.8042 -0.2512
vn 0.2033 0.8042 0.5585
vt 0.000000 0.000000
s 1
f 8/1/1 15/1/2 16/1/3
f 5/1/4 14/1/5 6/1/6
f 3/1/7 12/1/8 4/1/9
f 1/1/10 10/1/11 2/1/12
f 1/1/10 16/1/3 9/1/13
f 7/1/14 14/1/5 15/1/2
f 4/1/9 13/1/15 5/1/4
f 3/1/7 10/1/11 11/1/16
f 32/1/17 23/1/18 24/1/19
f 30/1/20 21/1/21 22/1/22
f 20/1/23 27/1/24 19/1/25
f 18/1/26 25/1/27 17/1/28
f 25/1/27 24/1/19 17/1/28
f 31/1/29 22/1/22 23/1/18
f 29/1/30 20/1/23 21/1/21
f 27/1/24 18/1/26 19/1/25
f 26/1/31 11/1/16 10/1/11
f 20/1/23 3/1/7 4/1/9
f 27/1/24 12/1/8 11/1/16
f 21/1/21 4/1/9 5/1/4
f 28/1/32 13/1/15 12/1/8
f 22/1/22 5/1/4 6/1/6
f 29/1/30 14/1/5 13/1/15
f 23/1/18 6/1/6 7/1/14
f 30/1/20 15/1/2 14/1/5
f 24/1/19 7/1/14 8/1/1
f 31/1/29 16/1/3 15/1/2
f 17/1/28 8/1/1 1/1/10
f 18/1/26 1/1/10 2/1/12
f 32/1/17 9/1/13 16/1/3
f 25/1/27 10/1/11 9/1/13
f 19/1/25 2/1/12 3/1/7
f 39/1/33 48/1/34 40/1/35
f 37/1/36 46/1/37 38/1/38
f 35/1/39 44/1/40 36/1/41
f 33/1/42 42/1/43 34/1/44
f 33/1/42 48/1/34 41/1/45
f 39/1/33 46/1/37 47/1/46
f 37/1/36 44/1/40 45/1/47
f 35/1/39 42/1/43 43/1/48
f 56/1/49 63/1/50 55/1/51
f 62/1/52 53/1/53 54/1/54
f 60/1/55 51/1/56 52/1/57
f 58/1/58 49/1/59 50/1/60
f 57/1/61 56/1/49 49/1/59
f 63/1/50 54/1/54 55/1/51
f 53/1/53 60/1/55 52/1/57
f 51/1/56 58/1/58 50/1/60
f 58/1/58 43/1/48 42/1/43
f 52/1/57 35/1/39 36/1/41
f 59/1/62 44/1/40 43/1/48
f 53/1/53 36/1/41 37/1/36
f 60/1/55 45/1/47 44/1/40
f 54/1/54 37/1/36 38/1/38
f 61/1/63 46/1/37 45/1/47
f 55/1/51 38/1/38 39/1/33
f 62/1/52 47/1/46 46/1/37
f 56/1/49 39/1/33 40/1/35
f 63/1/50 48/1/34 47/1/46
f 49/1/59 40/1/35 33/1/42
f 50/1/60 33/1/42 34/1/44
f 64/1/64 41/1/45 48/1/34
f 57/1/61 42/1/43 41/1/45
f 51/1/56 34/1/44 35/1/39
f 8/1/1 7/1/14 15/1/2
f 5/1/4 13/1/15 14/1/5
f 3/1/7 11/1/16 12/1/8
f 1/1/10 9/1/13 10/1/11
f 1/1/10 8/1/1 16/1/3
f 7/1/14 6/1/6 14/1/5
f 4/1/9 12/1/8 13/1/15
f 3/1/7 2/1/12 10/1/11
f 32/1/17 31/1/29 23/1/18
f 30/1/20 29/1/30 21/1/21
f 20/1/23 28/1/32 27/1/24
f 18/1/26 26/1/31 25/1/27
f 25/1/27 32/1/17 24/1/19
f 31/1/29 30/1/20 22/1/22
f 29/1/30 28/1/32 20/1/23
f 27/1/24 26/1/31 18/1/26
f 26/1/31 27/1/24 11/1/16
f 20/1/23 19/1/25 3/1/7
f 27/1/24 28/1/32 12/1/8
f 21/1/21 20/1/23 4/1/9
f 28/1/32 29/1/30 13/1/15
f 22/1/22 21/1/21 5/1/4
f 29/1/30 30/1/20 14/1/5
f 23/1/18 22/1/22 6/1/6
f 30/1/20 31/1/29 15/1/2
f 24/1/19 23/1/18 7/1/14
f 31/1/29 32/1/17 16/1/3
f 17/1/28 24/1/19 8/1/1
f 18/1/26 17/1/28 1/1/10
f 32/1/17 25/1/27 9/1/13
f 25/1/27 26/1/31 10/1/11
f 19/1/25 18/1/26 2/1/12
f 39/1/33 47/1/46 48/1/34
f 37/1/36 45/1/47 46/1/37
f 35/1/39 43/1/48 44/1/40
f 33/1/42 41/1/45 42/1/43
f 33/1/42 40/1/35 48/1/34
f 39/1/33 38/1/38 46/1/37
f 37/1/36 36/1/41 44/1/40
f 35/1/39 34/1/44 42/1/43
f 56/1/49 64/1/64 63/1/50
f 62/1/52 61/1/63 53/1/53
f 60/1/55 59/1/62 51/1/56
f 58/1/58 57/1/61 49/1/59
f 57/1/61 64/1/64 56/1/49
f 63/1/50 62/1/52 54/1/54
f 53/1/53 61/1/63 60/1/55
f 51/1/56 59/1/62 58/1/58
f 58/1/58 59/1/62 43/1/48
f 52/1/57 51/1/56 35/1/39
f 59/1/62 60/1/55 44/1/40
f 53/1/53 52/1/57 36/1/41
f 60/1/55 61/1/63 45/1/47
f 54/1/54 53/1/53 37/1/36
f 61/1/63 62/1/52 46/1/37
f 55/1/51 54/1/54 38/1/38
f 62/1/52 63/1/50 47/1/46
f 56/1/49 55/1/51 39/1/33
f 63/1/50 64/1/64 48/1/34
f 49/1/59 56/1/49 40/1/35
f 50/1/60 49/1/59 33/1/42
f 64/1/64 57/1/61 41/1/45
f 57/1/61 58/1/58 42/1/43
f 51/1/56 50/1/60 34/1/44
