# Blender 4.0.2
# www.blender.org
mtllib rocket.mtl
o rocket
v -1.455171 -0.172196 7.684664
v -1.038565 0.888600 7.696014
v 0.006157 1.344156 7.698461
v 1.067010 0.927612 7.690578
v 1.522560 -0.117026 7.676977
v 1.105956 -1.177822 7.665630
v 0.061233 -1.633378 7.663181
v -0.999620 -1.216833 7.671062
v -2.649893 -0.125733 1.898969
v -1.903522 1.774738 1.919302
v -0.031850 2.590887 1.923688
v 1.868721 1.844629 1.909560
v 2.684862 -0.026894 1.885195
v 1.938491 -1.927365 1.864863
v 0.066819 -2.743515 1.860474
v -1.833751 -1.997254 1.874603
v -2.667701 -0.050712 -4.459817
v -1.921329 1.849760 -4.439485
v -0.049658 2.665911 -4.435099
v 1.850912 1.919651 -4.449226
v 2.667055 0.048130 -4.473592
v 1.920683 -1.852341 -4.493925
v 0.049011 -2.668493 -4.498312
v -1.851560 -1.922233 -4.484185
v -1.815909 0.013911 -8.583484
v -1.311112 1.299267 -8.569733
v -0.045233 1.851261 -8.566766
v 1.240192 1.346538 -8.576320
v 1.792178 0.080760 -8.592799
v 1.287379 -1.204598 -8.606551
v 0.021502 -1.756589 -8.609518
v -1.263923 -1.251868 -8.599963
v -1.127784 -0.166130 7.683818
v -0.802784 0.661409 7.692677
v 0.012214 1.016793 7.694585
v 0.839795 0.691841 7.688429
v 1.195175 -0.123092 7.677824
v 0.870175 -0.950631 7.668969
v 0.055178 -1.306015 7.667059
v -0.772405 -0.981065 7.673210
v -1.723266 -0.200507 9.655420
v -1.230099 1.055235 9.668850
v 0.006615 1.594510 9.671752
v 1.262424 1.101416 9.662419
v 1.801694 -0.135200 9.646321
v 1.308527 -1.390943 9.632887
v 0.071812 -1.930218 9.629988
v -1.183996 -1.437123 9.639320
v -6.753866 -0.339101 8.712757
v 0.177335 -6.978537 8.621665
v -0.098324 7.029164 8.788661
v 6.825107 -0.087516 8.677691
v -0.968048 0.046071 -9.974098
v -0.701580 0.724570 -9.966838
v -0.033367 1.015946 -9.965273
v 0.645164 0.749520 -9.970316
v 0.936538 0.081359 -9.979016
v 0.670073 -0.597136 -9.986274
v 0.001859 -0.888515 -9.987839
v -0.676674 -0.622089 -9.982796
v -0.319727 0.064376 -10.506639
v -0.235086 0.279893 -10.504333
v -0.022835 0.372445 -10.503837
v 0.192694 0.287818 -10.505438
v 0.285246 0.075584 -10.508201
v 0.200605 -0.139933 -10.510509
v -0.011643 -0.232486 -10.511003
v -0.227173 -0.147859 -10.509402
v -0.325024 0.086696 -12.398461
v -0.240383 0.302211 -12.396153
v -0.028132 0.394767 -12.395657
v 0.187395 0.310136 -12.397258
v 0.279947 0.097902 -12.400025
v 0.195307 -0.117613 -12.402329
v -0.016943 -0.210167 -12.402823
v -0.232472 -0.125540 -12.401224
v -1.125203 0.071868 -12.396383
v -0.816661 0.857506 -12.387979
v -0.042930 1.194894 -12.386165
v 0.742744 0.886398 -12.392006
v 1.080131 0.112729 -12.402075
v 0.771588 -0.672906 -12.410482
v -0.002143 -1.010295 -12.412298
v -0.787819 -0.701798 -12.406457
v -1.126703 0.078189 -12.932019
v -0.818160 0.863826 -12.923615
v -0.044432 1.201215 -12.921801
v 0.741244 0.892716 -12.927640
v 1.078631 0.119049 -12.937713
v 0.770089 -0.666585 -12.946118
v -0.003642 -1.003974 -12.947935
v -0.789318 -0.695478 -12.942092
v -0.342088 0.092726 -12.934048
v -0.253092 0.319335 -12.931624
v -0.029918 0.416650 -12.931101
v 0.196701 0.327668 -12.932783
v 0.294014 0.104512 -12.935690
v 0.205019 -0.122095 -12.938113
v -0.018154 -0.219411 -12.938637
v -0.244775 -0.130428 -12.936954
v -0.036347 0.150480 -17.330391
vn -0.2822 -0.3098 0.9080
vn -0.5291 0.7695 0.3576
vn -0.6867 -0.7110 -0.1516
vn 0.2981 -0.2975 0.9070
vn 0.8017 -0.4945 0.3358
vn 0.7120 -0.6847 -0.1557
vn -0.2982 0.2752 0.9140
vn 0.1099 0.2329 0.9663
vn -0.2361 -0.1232 0.9639
vn -0.8099 0.4829 0.3330
vn -0.7174 0.6829 -0.1380
vn -0.9950 -0.0172 -0.0980
vn -0.9534 0.1097 -0.2811
vn 0.1401 -0.9439 -0.2989
vn 0.7161 -0.6891 -0.1107
vn 0.9945 0.0196 -0.1031
vn 0.6909 0.7090 -0.1415
vn 0.9517 -0.1012 -0.2899
vn -0.1480 0.9436 -0.2962
vn -0.7167 0.6915 -0.0904
vn -0.6907 -0.7152 -0.1071
vn -0.0187 0.9959 -0.0888
vn -0.6495 -0.6687 -0.3619
vn 0.0181 -0.9935 -0.1124
vn 0.9334 0.0215 -0.3582
vn 0.6475 0.6771 -0.3497
vn 0.6901 0.7176 -0.0941
vn -0.6739 0.6526 -0.3463
vn -0.9354 -0.0131 -0.3534
vn 0.0163 -0.9301 -0.3669
vn -0.0110 0.6961 0.7179
vn 0.2925 0.2864 0.9124
vn -0.7025 -0.0214 0.7114
vn 0.5093 -0.4972 0.7024
vn 0.2434 0.1080 0.9639
vn 0.4909 0.4990 0.7142
vn -0.1096 -0.2567 0.9603
vn -0.5054 0.4805 0.7167
vn -0.4869 -0.5157 0.7049
vn 0.7065 0.0047 0.7077
vn 0.0150 -0.7128 0.7012
vn -0.5928 -0.6227 0.5108
vn 0.6181 -0.6003 0.5076
vn 0.5957 0.6105 0.5220
vn -0.8548 -0.0220 0.5186
vn 0.0173 -0.8622 0.5062
vn -0.0144 0.8500 0.5265
vn 0.8576 0.0098 0.5142
vn 0.5158 -0.7891 0.3337
vn 0.5324 0.5618 -0.6332
vn -0.0183 0.9385 -0.3447
vn -0.5561 0.5417 -0.6304
vn -0.5360 -0.5468 -0.6432
vn 0.0124 -0.7621 -0.6473
vn 0.6719 -0.6442 -0.3653
vn 0.5525 -0.5266 -0.6461
vn -0.8811 -0.0107 -0.4728
vn -0.7715 -0.0067 -0.6362
vn 0.0149 -0.8741 -0.4855
vn 0.8784 0.0219 -0.4774
vn 0.7679 0.0218 -0.6402
vn -0.0160 0.7772 -0.6291
vn -0.6349 0.6161 -0.4661
vn -0.6119 -0.6280 -0.4809
vn 0.6092 0.6392 -0.4694
vn -0.0087 0.5847 0.8112
vn -0.0176 0.8853 -0.4647
vn -0.4257 0.4029 0.8102
vn -0.4102 -0.4375 0.8002
vn 0.0132 -0.6037 0.7971
vn 0.6323 -0.6049 -0.4841
vn 0.4147 0.4185 0.8080
vn 0.4302 -0.4219 0.7981
vn 0.0161 -0.7836 0.6210
vn 0.5608 -0.5461 0.6223
vn 0.5965 0.0015 0.8026
vn 0.5405 0.5516 0.6353
vn -0.5573 0.5312 0.6381
vn -0.5920 -0.0205 0.8057
vn -0.7745 -0.0218 0.6322
vn 0.7780 0.0069 0.6282
vn 0.7745 0.0218 -0.6322
vn -0.0161 0.7836 -0.6210
vn -0.0126 0.7688 0.6394
vn -0.5405 -0.5516 -0.6353
vn -0.5370 -0.5665 0.6251
vn 0.5370 0.5665 -0.6251
vn -0.7780 -0.0069 -0.6282
vn 0.5573 -0.5312 -0.6381
vn -0.3958 -0.3986 -0.8273
vn 0.0082 -0.5572 -0.8304
vn 0.0126 -0.7688 -0.6394
vn 0.3912 0.4180 -0.8199
vn -0.4106 0.4031 -0.8178
vn -0.5608 0.5461 -0.6223
vn 0.4060 -0.3837 -0.8294
vn -0.0128 0.5766 -0.8169
vn -0.0027 0.0117 -0.9999
vn 0.5646 0.0202 -0.8251
vn -0.5692 -0.0008 -0.8222
vn -0.6152 0.5881 0.5251
vt 0.000000 0.000000
s 1
f 8/1/1 49/1/2 16/1/3
f 6/1/4 50/1/5 14/1/6
f 2/1/7 49/1/2 1/1/8
f 3/1/9 51/1/10 2/1/7
f 16/1/3 50/1/5 8/1/1
f 10/1/11 17/1/12 9/1/13
f 17/1/12 16/1/3 9/1/13
f 15/1/14 22/1/15 14/1/6
f 21/1/16 12/1/17 13/1/18
f 11/1/19 18/1/20 10/1/11
f 24/1/21 15/1/14 16/1/3
f 22/1/15 13/1/18 14/1/6
f 12/1/17 19/1/22 11/1/19
f 32/1/23 23/1/24 24/1/21
f 22/1/15 29/1/25 21/1/16
f 28/1/26 19/1/22 20/1/27
f 26/1/28 17/1/12 18/1/20
f 25/1/29 24/1/21 17/1/12
f 31/1/30 22/1/15 23/1/24
f 29/1/25 20/1/27 21/1/16
f 19/1/22 26/1/28 18/1/20
f 35/1/31 4/1/32 3/1/9
f 33/1/33 2/1/7 1/1/8
f 8/1/1 33/1/33 1/1/8
f 38/1/34 7/1/35 6/1/4
f 36/1/36 5/1/37 4/1/32
f 34/1/38 3/1/9 2/1/7
f 7/1/35 40/1/39 8/1/1
f 37/1/40 6/1/4 5/1/37
f 39/1/41 48/1/42 40/1/39
f 37/1/40 46/1/43 38/1/34
f 35/1/31 44/1/44 36/1/36
f 41/1/45 34/1/38 33/1/33
f 40/1/39 41/1/45 33/1/33
f 38/1/34 47/1/46 39/1/41
f 44/1/44 37/1/40 36/1/36
f 34/1/38 43/1/47 35/1/31
f 47/1/46 45/1/48 43/1/47
f 12/1/17 52/1/49 13/1/18
f 15/1/14 50/1/5 16/1/3
f 8/1/1 50/1/5 7/1/35
f 7/1/35 50/1/5 15/1/14
f 14/1/6 50/1/5 15/1/14
f 7/1/35 50/1/5 6/1/4
f 11/1/19 3/1/9 51/1/10
f 2/1/7 51/1/10 10/1/11
f 10/1/11 51/1/10 11/1/19
f 11/1/19 51/1/10 12/1/17
f 12/1/17 51/1/10 4/1/32
f 4/1/32 51/1/10 3/1/9
f 13/1/18 52/1/49 5/1/37
f 1/1/8 9/1/13 49/1/2
f 5/1/37 52/1/49 4/1/32
f 4/1/32 52/1/49 12/1/17
f 9/1/13 49/1/2 10/1/11
f 10/1/11 49/1/2 2/1/7
f 1/1/8 49/1/2 8/1/1
f 13/1/18 52/1/49 14/1/6
f 14/1/6 52/1/49 6/1/4
f 6/1/4 52/1/49 5/1/37
f 16/1/3 49/1/2 9/1/13
f 56/1/50 27/1/51 28/1/26
f 54/1/52 25/1/29 26/1/28
f 25/1/29 60/1/53 32/1/23
f 59/1/54 30/1/55 31/1/30
f 29/1/25 56/1/50 28/1/26
f 27/1/51 54/1/52 26/1/28
f 32/1/23 59/1/54 31/1/30
f 58/1/56 29/1/25 30/1/55
f 61/1/57 60/1/53 53/1/58
f 67/1/59 58/1/56 59/1/54
f 65/1/60 56/1/50 57/1/61
f 55/1/62 62/1/63 54/1/52
f 68/1/64 59/1/54 60/1/53
f 58/1/56 65/1/60 57/1/61
f 64/1/65 55/1/62 56/1/50
f 54/1/52 61/1/57 53/1/58
f 64/1/65 71/1/66 63/1/67
f 70/1/68 61/1/57 62/1/63
f 61/1/57 76/1/69 68/1/64
f 75/1/70 66/1/71 67/1/59
f 65/1/60 72/1/72 64/1/65
f 63/1/67 70/1/68 62/1/63
f 68/1/64 75/1/70 67/1/59
f 74/1/73 65/1/60 66/1/71
f 76/1/69 83/1/74 75/1/70
f 82/1/75 73/1/76 74/1/73
f 80/1/77 71/1/66 72/1/72
f 78/1/78 69/1/79 70/1/68
f 77/1/80 76/1/69 69/1/79
f 75/1/70 82/1/75 74/1/73
f 81/1/81 72/1/72 73/1/76
f 71/1/66 78/1/78 70/1/68
f 89/1/82 80/1/77 81/1/81
f 87/1/83 78/1/78 79/1/84
f 92/1/85 83/1/74 84/1/86
f 82/1/75 89/1/82 81/1/81
f 88/1/87 79/1/84 80/1/77
f 78/1/78 85/1/88 77/1/80
f 85/1/88 84/1/86 77/1/80
f 83/1/74 90/1/89 82/1/75
f 85/1/88 100/1/90 92/1/85
f 99/1/91 90/1/89 91/1/92
f 89/1/82 96/1/93 88/1/87
f 87/1/83 94/1/94 86/1/95
f 92/1/85 99/1/91 91/1/92
f 98/1/96 89/1/82 90/1/89
f 88/1/87 95/1/97 87/1/83
f 94/1/94 85/1/88 86/1/95
f 98/1/96 101/1/98 97/1/99
f 96/1/93 101/1/98 95/1/97
f 94/1/94 101/1/98 93/1/100
f 93/1/100 101/1/98 100/1/90
f 99/1/91 101/1/98 98/1/96
f 97/1/99 101/1/98 96/1/93
f 95/1/97 101/1/98 94/1/94
f 100/1/90 101/1/98 99/1/91
f 10/1/11 18/1/20 17/1/12
f 17/1/12 24/1/21 16/1/3
f 15/1/14 23/1/24 22/1/15
f 21/1/16 20/1/27 12/1/17
f 11/1/19 19/1/22 18/1/20
f 24/1/21 23/1/24 15/1/14
f 22/1/15 21/1/16 13/1/18
f 12/1/17 20/1/27 19/1/22
f 32/1/23 31/1/30 23/1/24
f 22/1/15 30/1/55 29/1/25
f 28/1/26 27/1/51 19/1/22
f 26/1/28 25/1/29 17/1/12
f 25/1/29 32/1/23 24/1/21
f 31/1/30 30/1/55 22/1/15
f 29/1/25 28/1/26 20/1/27
f 19/1/22 27/1/51 26/1/28
f 35/1/31 36/1/36 4/1/32
f 33/1/33 34/1/38 2/1/7
f 8/1/1 40/1/39 33/1/33
f 38/1/34 39/1/41 7/1/35
f 36/1/36 37/1/40 5/1/37
f 34/1/38 35/1/31 3/1/9
f 7/1/35 39/1/41 40/1/39
f 37/1/40 38/1/34 6/1/4
f 39/1/41 47/1/46 48/1/42
f 37/1/40 45/1/48 46/1/43
f 35/1/31 43/1/47 44/1/44
f 41/1/45 42/1/101 34/1/38
f 40/1/39 48/1/42 41/1/45
f 38/1/34 46/1/43 47/1/46
f 44/1/44 45/1/48 37/1/40
f 34/1/38 42/1/101 43/1/47
f 43/1/47 42/1/101 41/1/45
f 41/1/45 48/1/42 47/1/46
f 47/1/46 46/1/43 45/1/48
f 45/1/48 44/1/44 43/1/47
f 43/1/47 41/1/45 47/1/46
f 56/1/50 55/1/62 27/1/51
f 54/1/52 53/1/58 25/1/29
f 25/1/29 53/1/58 60/1/53
f 59/1/54 58/1/56 30/1/55
f 29/1/25 57/1/61 56/1/50
f 27/1/51 55/1/62 54/1/52
f 32/1/23 60/1/53 59/1/54
f 58/1/56 57/1/61 29/1/25
f 61/1/57 68/1/64 60/1/53
f 67/1/59 66/1/71 58/1/56
f 65/1/60 64/1/65 56/1/50
f 55/1/62 63/1/67 62/1/63
f 68/1/64 67/1/59 59/1/54
f 58/1/56 66/1/71 65/1/60
f 64/1/65 63/1/67 55/1/62
f 54/1/52 62/1/63 61/1/57
f 64/1/65 72/1/72 71/1/66
f 70/1/68 69/1/79 61/1/57
f 61/1/57 69/1/79 76/1/69
f 75/1/70 74/1/73 66/1/71
f 65/1/60 73/1/76 72/1/72
f 63/1/67 71/1/66 70/1/68
f 68/1/64 76/1/69 75/1/70
f 74/1/73 73/1/76 65/1/60
f 76/1/69 84/1/86 83/1/74
f 82/1/75 81/1/81 73/1/76
f 80/1/77 79/1/84 71/1/66
f 78/1/78 77/1/80 69/1/79
f 77/1/80 84/1/86 76/1/69
f 75/1/70 83/1/74 82/1/75
f 81/1/81 80/1/77 72/1/72
f 71/1/66 79/1/84 78/1/78
f 89/1/82 88/1/87 80/1/77
f 87/1/83 86/1/95 78/1/78
f 92/1/85 91/1/92 83/1/74
f 82/1/75 90/1/89 89/1/82
f 88/1/87 87/1/83 79/1/84
f 78/1/78 86/1/95 85/1/88
f 85/1/88 92/1/85 84/1/86
f 83/1/74 91/1/92 90/1/89
f 85/1/88 93/1/100 100/1/90
f 99/1/91 98/1/96 90/1/89
f 89/1/82 97/1/99 96/1/93
f 87/1/83 95/1/97 94/1/94
f 92/1/85 100/1/90 99/1/91
f 98/1/96 97/1/99 89/1/82
f 88/1/87 96/1/93 95/1/97
f 94/1/94 93/1/100 85/1/88
